<?xml version="1.0" standalone="no"?><!-- Generator: Gravit.io --><svg xmlns="http://www.w3.org/2000/svg" xmlns:xlink="http://www.w3.org/1999/xlink" style="isolation:isolate" width="128" height="128"><rect x="19" y="50.650951871254335" width="90" height="24" transform="matrix(1,0,0,1,0,0)" fill="rgb(0,0,0)" stroke-width="1" stroke="rgb(255,255,255)" stroke-linejoin="miter" stroke-linecap="square"/><path d="M 108.9931462820376 73.65095187125434 C 108.9984955814922 73.78715683147864 109 73.86377429194052 109 74 C 108.99999999999996 85.03830059005024 88.83617632761307 93.99999999999996 64.00000000000001 94 C 39.163823672386954 94.00000000000004 19.000000000000007 85.03830059005026 19 74.00000000000001" style="stroke:none;fill:#000000;stroke-miterlimit:10;"/><path d="M 108.9931462820376 73.65095187125434 C 108.9984955814922 73.78715683147864 109 73.86377429194052 109 74 C 108.99999999999996 85.03830059005024 88.83617632761307 93.99999999999996 64.00000000000001 94 C 39.163823672386954 94.00000000000004 19.000000000000007 85.03830059005026 19 74.00000000000001" style="fill:none;stroke:#FFFFFF;stroke-width:1;stroke-linecap:square;stroke-miterlimit:3;"/><circle vector-effect="non-scaling-stroke" cx="0" cy="0" r="1" fill="rgb(0,0,0)" transform="matrix(45,0,0,20,64,52)" stroke-width="1" stroke="rgb(255,255,255)"/></svg>
